<svg xmlns="http://www.w3.org/2000/svg" width="1000" height="1000"><rect width="1000" height="1000" rx="150" ry="150" fill="#4775ff"/><svg xmlns="http://www.w3.org/2000/svg" xmlns:xlink="http://www.w3.org/1999/xlink" xmlns:svgjs="http://svgjs.com/svgjs" width="576" height="512" transform="matrix(1.38889 0 0 1.38889 100 144.444)"><svg xmlns="http://www.w3.org/2000/svg" width="576" height="512" viewBox="0 0 576 512"><path d="M544 64h-32V32c0-17.6-14.4-32-32-32H32C14.4 0 0 14.4 0 32v384c0 17.6 14.4 32 32 32h32v32c0 17.6 14.4 32 32 32h448c17.6 0 32-14.4 32-32V96c0-17.6-14.4-32-32-32zM64 96v320H32.057a.446.446 0 0 1-.057-.058V32.057a.511.511 0 0 1 .057-.057h447.885a.53.53 0 0 1 .058.058V64H96c-17.6 0-32 14.4-32 32zm480 383.942a.53.53 0 0 1-.058.058H96.057a.446.446 0 0 1-.057-.058V96.057a.511.511 0 0 1 .057-.057h447.885a.53.53 0 0 1 .058.058v383.884z"/><path d="M480 176c0 26.51-21.49 48-48 48s-48-21.49-48-48 21.49-48 48-48 48 21.49 48 48zM512 448H128v-64l112-192 128 160h32l112-96z"/></svg></svg></svg>